<svg viewBox="0 0 120 27" xmlns="http://www.w3.org/2000/svg">
<path d="M42.8347 26.2726C41.4456 26.2726 40.2501 25.9879 39.2481 25.4186C38.2689 24.8266 37.5174 23.9726 36.9936 22.8568C36.4699 21.7182 36.208 20.3177 36.208 18.6553V8.64693H40.8194V18.1771C40.8194 19.5662 41.104 20.6137 41.6733 21.3196C42.2654 22.0256 43.1649 22.3786 44.3718 22.3786C45.1461 22.3786 45.8293 22.2078 46.4213 21.8662C47.0134 21.5018 47.4802 20.9895 47.8218 20.3291C48.1862 19.6459 48.3684 18.8147 48.3684 17.8355V8.64693H52.9456V25.8627H48.9149L48.5392 23.0617C48.0382 24.0409 47.2981 24.8266 46.3189 25.4186C45.3397 25.9879 44.1783 26.2726 42.8347 26.2726Z" fill="#ffffff"/>
<path d="M57.4617 25.8627V1.26874H62.073V25.8627H57.4617Z" fill="#ffffff"/>
<path d="M66.5683 25.8627V1.26874H71.1797V25.8627H66.5683Z" fill="#ffffff"/>
<path d="M75.7775 25.8627V8.64693H80.3888V25.8627H75.7775ZM78.1002 6.29001C77.2804 6.29001 76.5973 6.0509 76.0507 5.57268C75.527 5.07169 75.2651 4.44546 75.2651 3.69397C75.2651 2.94249 75.527 2.32764 76.0507 1.84943C76.5973 1.34844 77.2804 1.09795 78.1002 1.09795C78.9428 1.09795 79.626 1.34844 80.1497 1.84943C80.6963 2.32764 80.9695 2.94249 80.9695 3.69397C80.9695 4.44546 80.6963 5.07169 80.1497 5.57268C79.626 6.0509 78.9428 6.29001 78.1002 6.29001Z" fill="#ffffff"/>
<path d="M92.0851 26.2726C90.5138 26.2726 89.1475 26.0221 87.9861 25.5211C86.8247 25.0201 85.9138 24.3256 85.2535 23.4375C84.5931 22.5493 84.2173 21.5474 84.1262 20.4315H88.7034C88.8173 20.8642 89.0109 21.2627 89.2841 21.6271C89.5574 21.9687 89.9218 22.2419 90.3772 22.4469C90.8326 22.6518 91.3792 22.7543 92.0168 22.7543C92.6316 22.7543 93.1326 22.6746 93.5198 22.5152C93.9069 22.333 94.1915 22.0939 94.3737 21.7979C94.5787 21.5018 94.6811 21.1944 94.6811 20.8756C94.6811 20.3974 94.5445 20.033 94.2712 19.7825C93.998 19.5093 93.5995 19.2929 93.0757 19.1335C92.5519 18.9741 91.9143 18.8147 91.1628 18.6553C90.343 18.4959 89.5346 18.3023 88.7376 18.0746C87.9633 17.8241 87.2688 17.5167 86.6539 17.1523C86.0391 16.788 85.5495 16.3212 85.1851 15.7518C84.8208 15.1825 84.6386 14.4766 84.6386 13.634C84.6386 12.6093 84.9119 11.6984 85.4584 10.9014C86.0049 10.0816 86.802 9.43257 87.8495 8.95435C88.897 8.47613 90.1609 8.23703 91.6411 8.23703C93.7133 8.23703 95.3529 8.70386 96.5599 9.63752C97.7668 10.5712 98.4841 11.8578 98.7118 13.4974H94.3737C94.2371 12.9736 93.9297 12.5637 93.4514 12.2677C92.996 11.9489 92.3812 11.7895 91.6069 11.7895C90.7871 11.7895 90.1609 11.9375 89.7282 12.2335C89.2955 12.5296 89.0792 12.9167 89.0792 13.3949C89.0792 13.7137 89.2158 13.9984 89.4891 14.2489C89.7851 14.4994 90.195 14.7157 90.7188 14.8979C91.2425 15.0573 91.8802 15.2167 92.6316 15.3761C93.9524 15.6494 95.1138 15.9682 96.1158 16.3325C97.1178 16.6741 97.9034 17.1751 98.4727 17.8355C99.042 18.4731 99.3267 19.4068 99.3267 20.6365C99.3267 21.7295 99.0306 22.7088 98.4386 23.5741C97.8465 24.4167 97.0039 25.0771 95.9108 25.5553C94.8406 26.0335 93.5653 26.2726 92.0851 26.2726Z" fill="#ffffff"/>
<path d="M103.228 25.8627V1.26874H107.84V11.2088C108.409 10.2979 109.161 9.58059 110.094 9.05683C111.051 8.51029 112.155 8.23703 113.408 8.23703C114.842 8.23703 116.049 8.54445 117.028 9.1593C118.008 9.75138 118.748 10.6167 119.249 11.7553C119.75 12.8939 120 14.3058 120 15.991V25.8627H115.423V16.4009C115.423 15.0345 115.138 13.987 114.569 13.2583C114 12.5068 113.1 12.1311 111.871 12.1311C111.119 12.1311 110.436 12.3132 109.821 12.6776C109.206 13.042 108.717 13.5771 108.352 14.283C108.011 14.9662 107.84 15.786 107.84 16.7424V25.8627H103.228Z" fill="#ffffff"/>
<path d="M11.6571 10.7187H6.15479V26.0705H11.6571V10.7187Z" fill="url(#paint0_linear_1363_2477)"/>
<path d="M5.5023 18.4864H0V26.071H5.5023V18.4864Z" fill="url(#paint1_linear_1363_2477)"/>
<path d="M17.8114 3.08858H12.3091V26.0705H17.8114V3.08858Z" fill="url(#paint2_linear_1363_2477)"/>
<path d="M34.1583 19.0009V18.9322C34.1583 17.2046 33.7348 15.8663 32.877 14.8942C32.0305 13.9221 30.8521 13.1552 29.3649 12.5952C29.8226 12.3434 30.2574 12.0574 30.6577 11.7141C31.0579 11.3712 31.4126 10.9705 31.7213 10.5129C32.0305 10.0553 32.2591 9.55167 32.4535 8.99162C32.6365 8.41972 32.7281 7.76767 32.7281 7.03548V6.95534C32.7281 4.91905 31.9731 3.30624 30.4632 2.10505C29.0102 0.938 27.0313 0.343332 24.5261 0.297333H20.076V5.34205H24.5261C25.2009 5.44496 25.75 5.65077 26.1735 5.94858C26.8142 6.40619 27.1229 7.05824 27.1229 7.9161V7.99624C27.1229 8.94563 26.7568 9.64367 26.0246 10.0667C25.2924 10.5015 24.297 10.7187 23.0389 10.7187H18.4746V15.432H24.3663C25.842 15.432 26.9057 15.6838 27.5691 16.1869C28.2325 16.6905 28.5645 17.3653 28.5645 18.2232V18.3033C28.5645 19.2527 28.2098 19.9622 27.5008 20.4198C26.78 20.8774 25.8079 21.0946 24.5493 21.0946H17.8112V18.807H12.2861V26.071H24.5379C25.9795 26.071 27.295 25.9221 28.4843 25.6248C29.6741 25.3388 30.6923 24.8926 31.5387 24.2974C32.3738 23.7142 33.0259 22.982 33.4835 22.0895C33.9297 21.2089 34.1583 20.1789 34.1583 19.0009Z" fill="url(#paint3_linear_1363_2477)"/>
<path fill-rule="evenodd" clip-rule="evenodd" d="M15.157 0L17.4565 2.41376L19.7555 4.81615H15.157H10.5581L12.8576 2.41376L15.157 0Z" fill="url(#paint4_linear_1363_2477)"/>
<defs>
<linearGradient id="paint0_linear_1363_2477" x1="6.28791" y1="12.3743" x2="11.7321" y2="12.5035" gradientUnits="userSpaceOnUse">
<stop stop-color="#79EB93"/>
<stop offset="1" stop-color="#D6FFAD"/>
</linearGradient>
<linearGradient id="paint1_linear_1363_2477" x1="0.13312" y1="19.3043" x2="5.56781" y2="19.5653" gradientUnits="userSpaceOnUse">
<stop stop-color="#79EB93"/>
<stop offset="1" stop-color="#D6FFAD"/>
</linearGradient>
<linearGradient id="paint2_linear_1363_2477" x1="12.4422" y1="5.56703" x2="17.8881" y2="5.65332" gradientUnits="userSpaceOnUse">
<stop stop-color="#79EB93"/>
<stop offset="1" stop-color="#D6FFAD"/>
</linearGradient>
<linearGradient id="paint3_linear_1363_2477" x1="12.8153" y1="3.07685" x2="34.4004" y2="4.28919" gradientUnits="userSpaceOnUse">
<stop stop-color="#79EB93"/>
<stop offset="1" stop-color="#D6FFAD"/>
</linearGradient>
<linearGradient id="paint4_linear_1363_2477" x1="10.7806" y1="0.519388" x2="19.7428" y2="1.65214" gradientUnits="userSpaceOnUse">
<stop stop-color="#79EB93"/>
<stop offset="1" stop-color="#D6FFAD"/>
</linearGradient>
</defs>
</svg>

